# xmcd
#
# Track frame offsets:
#	150
#	12675
#	34647
#	53706
#	71072
#	87580
#	98273
#	120089
#	138660
#	162868
#	185056
#	218358
#
# Disc length: 3343 seconds
#
# Revision: 1
# Processed by: cddbd v1.5PL3 Copyright (c) Steve Scherf et al.
# Submitted via: EasyCDDAExtractor 7.0.5.1
#
DISCID=9b0d0d0c
DTITLE=Nas - Soulmatic (Stillmatic - Soul Supreme Remix)
DYEAR=2003
DGENRE=Hip-Hop
TTITLE0=Stillmatic
TTITLE1=Ether
TTITLE2=Got Ur Self A...
TTITLE3=Smokin'
TTITLE4=You're Da Man
TTITLE5=Rewind
TTITLE6=One Mic
TTITLE7=2nd Childhood
TTITLE8=Destroy And Rebuild
TTITLE9=The Flyest (feat. AZ)
TTITLE10=Ether Remix Remix
TTITLE11=extra txt
EXTD=
EXTT0=
EXTT1=
EXTT2=
EXTT3=
EXTT4=
EXTT5=
EXTT6=
EXTT7=
EXTT8=
EXTT9=
EXTT10=
EXTT11=
PLAYORDER=
